<svg width="24" height="24" viewBox="0 0 24 24" fill="none" xmlns="http://www.w3.org/2000/svg">
<g opacity="0.98">
<path d="M4.53027 3.46973C4.76311 3.23689 5.10966 3.19173 5.38965 3.3291C5.42507 3.4013 5.47024 3.47023 5.53027 3.53027L21.4697 19.4697C21.5294 19.5293 21.5982 19.574 21.6699 19.6094C21.8079 19.8896 21.7634 20.2366 21.5303 20.4697C21.2375 20.7625 20.7626 20.7623 20.4697 20.4697L17.25 17.25V18.75C17.25 19.3467 17.0128 19.9189 16.5908 20.3408C16.1689 20.7628 15.5967 21 15 21H9C8.40326 21 7.83114 20.7628 7.40918 20.3408C6.98722 19.9189 6.75 19.3467 6.75 18.75V6.75L4.53027 4.53027C4.23746 4.23739 4.23746 3.76261 4.53027 3.46973ZM4.5 7.5C4.69891 7.5 4.88962 7.57907 5.03027 7.71973C5.17093 7.86038 5.25 8.05109 5.25 8.25V15.75C5.25 15.9489 5.17093 16.1396 5.03027 16.2803C4.88962 16.4209 4.69891 16.5 4.5 16.5C4.30109 16.5 4.11038 16.4209 3.96973 16.2803C3.82907 16.1396 3.75 15.9489 3.75 15.75V8.25C3.75 8.05109 3.82907 7.86038 3.96973 7.71973C4.11038 7.57907 4.30109 7.5 4.5 7.5ZM19.5 7.5C19.6989 7.5 19.8896 7.57907 20.0303 7.71973C20.1709 7.86038 20.25 8.05109 20.25 8.25V15.75C20.25 15.8582 20.2246 15.963 20.1807 16.0596L18.75 14.6289V8.25C18.75 8.05109 18.8291 7.86038 18.9697 7.71973C19.1104 7.57907 19.3011 7.5 19.5 7.5ZM1.5 9C1.69891 9 1.88962 9.07907 2.03027 9.21973C2.17093 9.36038 2.25 9.55109 2.25 9.75V14.25C2.25 14.4489 2.17093 14.6396 2.03027 14.7803C1.88962 14.9209 1.69891 15 1.5 15C1.30109 15 1.11038 14.9209 0.969727 14.7803C0.829074 14.6396 0.75 14.4489 0.75 14.25V9.75C0.75 9.55109 0.829074 9.36038 0.969727 9.21973C1.11038 9.07907 1.30109 9 1.5 9ZM22.5 9C22.6989 9 22.8896 9.07907 23.0303 9.21973C23.1709 9.36038 23.25 9.55109 23.25 9.75V14.25C23.25 14.4489 23.1709 14.6396 23.0303 14.7803C22.8896 14.9209 22.6989 15 22.5 15C22.3011 15 22.1104 14.9209 21.9697 14.7803C21.8291 14.6396 21.75 14.4489 21.75 14.25V9.75C21.75 9.55109 21.8291 9.36038 21.9697 9.21973C22.1104 9.07907 22.3011 9 22.5 9ZM15 3C15.5967 3 16.1689 3.23722 16.5908 3.65918C17.0128 4.08114 17.25 4.65326 17.25 5.25V13.1289L7.60645 3.48535C8.00153 3.17326 8.49145 3 9 3H15Z" fill="white"/>
</g>
</svg>
