<svg width="24" height="24" viewBox="0 0 24 24" fill="none" xmlns="http://www.w3.org/2000/svg">
<g opacity="0.98">
<path d="M19.546 17.9541C19.7573 18.1654 19.876 18.452 19.876 18.7509C19.876 19.0498 19.7573 19.3365 19.546 19.5478C19.3346 19.7592 19.048 19.8779 18.7491 19.8779C18.4502 19.8779 18.1636 19.7592 17.9522 19.5478L12 13.5937L6.04596 19.5459C5.83461 19.7573 5.54797 19.876 5.24908 19.876C4.9502 19.876 4.66355 19.7573 4.45221 19.5459C4.24086 19.3346 4.12213 19.0479 4.12213 18.7491C4.12213 18.4502 4.24086 18.1635 4.45221 17.9522L10.4063 12L4.45408 6.04593C4.24274 5.83459 4.12401 5.54795 4.12401 5.24906C4.12401 4.95017 4.24274 4.66353 4.45408 4.45218C4.66543 4.24084 4.95207 4.12211 5.25096 4.12211C5.54984 4.12211 5.83649 4.24084 6.04783 4.45218L12 10.4062L17.9541 4.45125C18.1654 4.2399 18.4521 4.12117 18.751 4.12117C19.0498 4.12117 19.3365 4.2399 19.5478 4.45125C19.7592 4.66259 19.8779 4.94924 19.8779 5.24812C19.8779 5.54701 19.7592 5.83365 19.5478 6.045L13.5938 12L19.546 17.9541Z" fill="white"/>
</g>
</svg>
