<svg width="24" height="24" viewBox="0 0 24 24" fill="none" xmlns="http://www.w3.org/2000/svg">
<path d="M19.5 5.25H16.9012L15.6234 3.33375C15.555 3.23114 15.4623 3.147 15.3535 3.08879C15.2448 3.03057 15.1233 3.00007 15 3H9C8.87665 3.00007 8.75522 3.03057 8.64648 3.08879C8.53773 3.147 8.44502 3.23114 8.37656 3.33375L7.09781 5.25H4.5C3.90326 5.25 3.33097 5.48705 2.90901 5.90901C2.48705 6.33097 2.25 6.90326 2.25 7.5V18C2.25 18.5967 2.48705 19.169 2.90901 19.591C3.33097 20.0129 3.90326 20.25 4.5 20.25H19.5C20.0967 20.25 20.669 20.0129 21.091 19.591C21.5129 19.169 21.75 18.5967 21.75 18V7.5C21.75 6.90326 21.5129 6.33097 21.091 5.90901C20.669 5.48705 20.0967 5.25 19.5 5.25ZM14.7009 15.6C13.8672 16.2207 12.8451 16.5351 11.8066 16.4901C10.7682 16.4452 9.77701 16.0438 9 15.3534V15.75C9 15.9489 8.92098 16.1397 8.78033 16.2803C8.63968 16.421 8.44891 16.5 8.25 16.5C8.05109 16.5 7.86032 16.421 7.71967 16.2803C7.57902 16.1397 7.5 15.9489 7.5 15.75V13.5C7.5 13.3011 7.57902 13.1103 7.71967 12.9697C7.86032 12.829 8.05109 12.75 8.25 12.75H10.5C10.6989 12.75 10.8897 12.829 11.0303 12.9697C11.171 13.1103 11.25 13.3011 11.25 13.5C11.25 13.6989 11.171 13.8897 11.0303 14.0303C10.8897 14.171 10.6989 14.25 10.5 14.25H10.0172C10.5352 14.7039 11.1932 14.9664 11.8814 14.9939C12.5697 15.0214 13.2465 14.8121 13.7991 14.4009C13.9581 14.2813 14.1581 14.2298 14.3551 14.2577C14.5521 14.2855 14.7299 14.3905 14.8495 14.5495C14.9691 14.7085 15.0207 14.9085 14.9928 15.1055C14.9649 15.3025 14.8599 15.4804 14.7009 15.6ZM16.5 11.25C16.5 11.4489 16.421 11.6397 16.2803 11.7803C16.1397 11.921 15.9489 12 15.75 12H13.5C13.3011 12 13.1103 11.921 12.9697 11.7803C12.829 11.6397 12.75 11.4489 12.75 11.25C12.75 11.0511 12.829 10.8603 12.9697 10.7197C13.1103 10.579 13.3011 10.5 13.5 10.5H13.9828C13.4648 10.0461 12.8068 9.78356 12.1186 9.7561C11.4303 9.72863 10.7535 9.93792 10.2009 10.3491C10.0419 10.4687 9.84193 10.5202 9.64493 10.4923C9.44793 10.4645 9.27007 10.3595 9.15047 10.2005C9.03087 10.0415 8.97934 9.84146 9.00721 9.64446C9.03507 9.44746 9.14006 9.2696 9.29906 9.15C10.1328 8.52931 11.1549 8.21494 12.1934 8.25985C13.2318 8.30476 14.223 8.70621 15 9.39656V9C15 8.80109 15.079 8.61032 15.2197 8.46967C15.3603 8.32902 15.5511 8.25 15.75 8.25C15.9489 8.25 16.1397 8.32902 16.2803 8.46967C16.421 8.61032 16.5 8.80109 16.5 9V11.25Z" fill="white"/>
</svg>
