<svg width="20" height="20" viewBox="0 0 20 20" fill="none" xmlns="http://www.w3.org/2000/svg">
<path d="M17.5 9.37491V16.8749C17.5 17.0407 17.4342 17.1996 17.3169 17.3169C17.1997 17.4341 17.0408 17.4999 16.875 17.4999H12.5C12.3342 17.4999 12.1753 17.4341 12.0581 17.3169C11.9408 17.1996 11.875 17.0407 11.875 16.8749V12.8124C11.875 12.7295 11.8421 12.65 11.7835 12.5914C11.7249 12.5328 11.6454 12.4999 11.5625 12.4999H8.4375C8.35462 12.4999 8.27513 12.5328 8.21653 12.5914C8.15792 12.65 8.125 12.7295 8.125 12.8124V16.8749C8.125 17.0407 8.05915 17.1996 7.94194 17.3169C7.82473 17.4341 7.66576 17.4999 7.5 17.4999H3.125C2.95924 17.4999 2.80027 17.4341 2.68306 17.3169C2.56585 17.1996 2.5 17.0407 2.5 16.8749V9.37491C2.50015 9.04345 2.63195 8.72562 2.86641 8.49132L9.11641 2.24132C9.3508 2.00707 9.66862 1.87549 10 1.87549C10.3314 1.87549 10.6492 2.00707 10.8836 2.24132L17.1336 8.49132C17.368 8.72562 17.4998 9.04345 17.5 9.37491Z" fill="black"/>
</svg>
