<svg width="20" height="20" viewBox="0 0 20 20" fill="none" xmlns="http://www.w3.org/2000/svg">
<path d="M17.5 10.0001C17.5002 11.9719 16.7239 13.8644 15.3391 15.2681C13.9543 16.6718 12.0724 17.4736 10.1008 17.5001H10C8.08456 17.5049 6.24085 16.7719 4.85156 15.4532C4.7919 15.3968 4.74394 15.3292 4.71042 15.2542C4.67689 15.1793 4.65846 15.0984 4.65618 15.0163C4.65389 14.9343 4.6678 14.8525 4.6971 14.7758C4.7264 14.6991 4.77053 14.6289 4.82695 14.5693C4.88338 14.5096 4.95101 14.4616 5.02597 14.4281C5.10093 14.3946 5.18176 14.3762 5.26385 14.3739C5.34593 14.3716 5.42767 14.3855 5.50438 14.4148C5.58109 14.4441 5.65128 14.4882 5.71094 14.5446C6.60453 15.3874 7.72663 15.9481 8.93705 16.1568C10.1475 16.3655 11.3926 16.213 12.5168 15.7182C13.641 15.2233 14.5945 14.4083 15.2582 13.3747C15.9218 12.3411 16.2663 11.1349 16.2484 9.90678C16.2305 8.67863 15.8512 7.48296 15.1577 6.46914C14.4642 5.45533 13.4874 4.66833 12.3493 4.20644C11.2112 3.74455 9.96216 3.62826 8.75832 3.8721C7.55447 4.11594 6.44916 4.70909 5.58047 5.57746C5.57409 5.58436 5.5673 5.59088 5.56016 5.59699L3.48359 7.50011H5.625C5.79076 7.50011 5.94973 7.56596 6.06694 7.68317C6.18415 7.80038 6.25 7.95935 6.25 8.12511C6.25 8.29087 6.18415 8.44984 6.06694 8.56705C5.94973 8.68426 5.79076 8.75011 5.625 8.75011H1.875C1.70924 8.75011 1.55027 8.68426 1.43306 8.56705C1.31585 8.44984 1.25 8.29087 1.25 8.12511V4.37511C1.25 4.20935 1.31585 4.05038 1.43306 3.93317C1.55027 3.81596 1.70924 3.75011 1.875 3.75011C2.04076 3.75011 2.19973 3.81596 2.31694 3.93317C2.43415 4.05038 2.5 4.20935 2.5 4.37511V6.70324L4.70703 4.68761C5.75702 3.64171 7.09333 2.93032 8.54729 2.64326C10.0012 2.3562 11.5077 2.50633 12.8764 3.07471C14.2451 3.64309 15.4147 4.60422 16.2376 5.83679C17.0605 7.06935 17.4998 8.51809 17.5 10.0001Z" fill="white"/>
</svg>
