<svg width="88" height="88" viewBox="0 0 88 88" fill="none" xmlns="http://www.w3.org/2000/svg">
<path d="M79.3822 75.6251C79.1408 76.0432 78.7935 76.3904 78.3753 76.6318C77.9572 76.8732 77.4828 77.0002 77 77.0001H11C10.5175 76.9996 10.0436 76.8722 9.62598 76.6306C9.20832 76.389 8.86156 76.0418 8.62053 75.6239C8.3795 75.2059 8.25268 74.7319 8.25281 74.2494C8.25293 73.7669 8.37999 73.2929 8.62124 72.8751C13.8566 63.8241 21.9244 57.3341 31.3397 54.2576C26.6824 51.4851 23.0641 47.2605 21.0402 42.2325C19.0163 37.2045 18.6989 31.6512 20.1367 26.4254C21.5744 21.1995 24.6878 16.5901 28.9988 13.305C33.3098 10.0199 38.58 8.24072 44 8.24072C49.42 8.24072 54.6902 10.0199 59.0012 13.305C63.3121 16.5901 66.4256 21.1995 67.8633 26.4254C69.3011 31.6512 68.9836 37.2045 66.9598 42.2325C64.9359 47.2605 61.3175 51.4851 56.6603 54.2576C66.0756 57.3341 74.1434 63.8241 79.3787 72.8751C79.6206 73.2928 79.7483 73.7669 79.7489 74.2496C79.7495 74.7323 79.623 75.2067 79.3822 75.6251Z" fill="black"/>
</svg>
