<svg width="24" height="24" viewBox="0 0 24 24" fill="none" xmlns="http://www.w3.org/2000/svg">
<path d="M17.25 1.5H6.75C6.35218 1.5 5.97064 1.65804 5.68934 1.93934C5.40804 2.22064 5.25 2.60218 5.25 3V7.24969C5.2508 7.57411 5.35599 7.88967 5.55 8.14969L7.5 10.7503V21C7.5 21.3978 7.65804 21.7794 7.93934 22.0607C8.22064 22.342 8.60218 22.5 9 22.5H15C15.3978 22.5 15.7794 22.342 16.0607 22.0607C16.342 21.7794 16.5 21.3978 16.5 21V10.7503L18.45 8.14969C18.644 7.88967 18.7492 7.57411 18.75 7.24969V3C18.75 2.60218 18.592 2.22064 18.3107 1.93934C18.0294 1.65804 17.6478 1.5 17.25 1.5ZM12.75 14.25C12.75 14.4489 12.671 14.6397 12.5303 14.7803C12.3897 14.921 12.1989 15 12 15C11.8011 15 11.6103 14.921 11.4697 14.7803C11.329 14.6397 11.25 14.4489 11.25 14.25V11.25C11.25 11.0511 11.329 10.8603 11.4697 10.7197C11.6103 10.579 11.8011 10.5 12 10.5C12.1989 10.5 12.3897 10.579 12.5303 10.7197C12.671 10.8603 12.75 11.0511 12.75 11.25V14.25ZM6.75 5.25V3H17.25V5.25H6.75Z" fill="white"/>
</svg>
