<svg width="24" height="24" viewBox="0 0 24 24" fill="none" xmlns="http://www.w3.org/2000/svg">
<g opacity="0.98">
<path d="M19.7156 5.28185L12.2156 3.03185C12.1037 2.99824 11.9854 2.99127 11.8702 3.0115C11.7551 3.03173 11.6462 3.0786 11.5524 3.14837C11.4586 3.21813 11.3824 3.30887 11.3299 3.41332C11.2774 3.51778 11.25 3.63306 11.25 3.74997V13.8993C10.4819 13.2123 9.5013 12.8098 8.47206 12.7589C7.44282 12.7081 6.4273 13.012 5.59523 13.62C4.76317 14.2279 4.16496 15.103 3.9006 16.099C3.63624 17.095 3.72173 18.1516 4.14279 19.0922C4.56386 20.0327 5.29498 20.8002 6.21396 21.2665C7.13295 21.7327 8.18412 21.8695 9.1918 21.6538C10.1995 21.4381 11.1026 20.8831 11.7502 20.0816C12.3979 19.28 12.7508 18.2805 12.75 17.25V9.25779L19.2844 11.2181C19.3964 11.2517 19.5146 11.2587 19.6298 11.2384C19.7449 11.2182 19.8538 11.1713 19.9476 11.1016C20.0414 11.0318 20.1176 10.9411 20.1701 10.8366C20.2226 10.7322 20.25 10.6169 20.25 10.5V5.99997C20.25 5.83873 20.198 5.6818 20.1017 5.55245C20.0054 5.42309 19.8701 5.3282 19.7156 5.28185Z" fill="white"/>
</g>
</svg>
