<svg width="324" height="35" viewBox="0 0 324 35" fill="none" xmlns="http://www.w3.org/2000/svg">
<path d="M317.447 28.1641L323.6 32.1836V34.2344L314.959 28.4648V27.8496L323.6 22.1895V24.2676L317.447 28.1641Z" fill="white"/>
<path d="M305.334 28.1641L311.486 32.1836V34.2344L302.846 28.4648V27.8496L311.486 22.1895V24.2676L305.334 28.1641Z" fill="white"/>
<path d="M293.221 28.1641L299.373 32.1836V34.2344L290.732 28.4648V27.8496L299.373 22.1895V24.2676L293.221 28.1641Z" fill="white"/>
<path d="M281.107 28.1641L287.26 32.1836V34.2344L278.619 28.4648V27.8496L287.26 22.1895V24.2676L281.107 28.1641Z" fill="white"/>
<path d="M268.994 28.1641L275.146 32.1836V34.2344L266.506 28.4648V27.8496L275.146 22.1895V24.2676L268.994 28.1641Z" fill="white"/>
<path d="M256.881 28.1641L263.033 32.1836V34.2344L254.393 28.4648V27.8496L263.033 22.1895V24.2676L256.881 28.1641Z" fill="white"/>
<path d="M244.768 28.1641L250.92 32.1836V34.2344L242.279 28.4648V27.8496L250.92 22.1895V24.2676L244.768 28.1641Z" fill="white"/>
<path d="M232.654 28.1641L238.807 32.1836V34.2344L230.166 28.4648V27.8496L238.807 22.1895V24.2676L232.654 28.1641Z" fill="white"/>
<path d="M220.541 28.1641L226.693 32.1836V34.2344L218.053 28.4648V27.8496L226.693 22.1895V24.2676L220.541 28.1641Z" fill="white"/>
<path d="M208.428 28.1641L214.58 32.1836V34.2344L205.939 28.4648V27.8496L214.58 22.1895V24.2676L208.428 28.1641Z" fill="white"/>
<path d="M196.314 28.1641L202.467 32.1836V34.2344L193.826 28.4648V27.8496L202.467 22.1895V24.2676L196.314 28.1641Z" fill="white"/>
<path d="M184.201 28.1641L190.354 32.1836V34.2344L181.713 28.4648V27.8496L190.354 22.1895V24.2676L184.201 28.1641Z" fill="white"/>
<path d="M172.088 28.1641L178.24 32.1836V34.2344L169.6 28.4648V27.8496L178.24 22.1895V24.2676L172.088 28.1641Z" fill="white"/>
<path d="M159.975 28.1641L166.127 32.1836V34.2344L157.486 28.4648V27.8496L166.127 22.1895V24.2676L159.975 28.1641Z" fill="white"/>
<path d="M147.861 28.1641L154.014 32.1836V34.2344L145.373 28.4648V27.8496L154.014 22.1895V24.2676L147.861 28.1641Z" fill="white"/>
<path d="M135.748 28.1641L141.9 32.1836V34.2344L133.26 28.4648V27.8496L141.9 22.1895V24.2676L135.748 28.1641Z" fill="white"/>
<path d="M123.635 28.1641L129.787 32.1836V34.2344L121.146 28.4648V27.8496L129.787 22.1895V24.2676L123.635 28.1641Z" fill="white"/>
<path d="M111.521 28.1641L117.674 32.1836V34.2344L109.033 28.4648V27.8496L117.674 22.1895V24.2676L111.521 28.1641Z" fill="white"/>
<path d="M99.4082 28.1641L105.561 32.1836V34.2344L96.9199 28.4648V27.8496L105.561 22.1895V24.2676L99.4082 28.1641Z" fill="white"/>
<path d="M87.2949 28.1641L93.4473 32.1836V34.2344L84.8066 28.4648V27.8496L93.4473 22.1895V24.2676L87.2949 28.1641Z" fill="white"/>
<path d="M75.1816 28.1641L81.334 32.1836V34.2344L72.6934 28.4648V27.8496L81.334 22.1895V24.2676L75.1816 28.1641Z" fill="white"/>
<path d="M65.2148 26.209L65.9395 26.3457C66.6094 26.4961 67.1426 26.7832 67.5527 27.207C68.4141 28.041 68.8516 29.0391 68.8516 30.1875V30.2285C68.8516 31.3906 68.5098 32.3066 67.8398 32.9766C66.9785 33.8379 65.8984 34.3301 64.5859 34.4531C64.3809 34.4668 64.1895 34.4805 63.9844 34.4805C62.877 34.4805 61.7559 34.207 60.6484 33.6465V31.8418L61.7559 32.416C62.3711 32.6758 63.0273 32.7988 63.7383 32.7988C63.9297 32.7988 64.1348 32.7852 64.3398 32.7715C65.2422 32.6758 65.9531 32.3613 66.4863 31.8418C66.9785 31.377 67.2246 30.8711 67.2246 30.3242V30.2422C67.2246 29.5312 67.0059 28.957 66.5684 28.5059C66.0898 27.9863 65.4336 27.7266 64.5859 27.7266H62.7949V26.373L66.3496 22.7773H60.6484V21.1367H68.4004V22.9824L65.2148 26.209Z" fill="white"/>
<path d="M48.6992 34.3711C48.6992 32.3887 48.8496 31.1445 49.1504 30.6113C49.6152 29.6133 50.6133 28.6289 52.1445 27.6445C53.3613 26.8652 54.1816 26.1543 54.6191 25.5117C54.7832 25.2793 54.8652 24.9922 54.8652 24.6504C54.8652 24.4316 54.8379 24.1992 54.7695 23.9395C54.6738 23.5703 54.373 23.2422 53.8809 22.9551C53.5527 22.75 53.1699 22.6406 52.7188 22.6406C51.666 22.6406 50.6953 22.9004 49.8066 23.4199C49.2051 23.7754 48.9043 23.9531 48.9043 23.9668C48.8906 23.543 48.8906 23.1602 48.8906 22.832C48.8906 22.4902 48.8906 22.2168 48.9043 21.9844C50.2031 21.3418 51.4746 21.0137 52.7188 21C53.8398 21 54.7695 21.3281 55.5078 21.9707C56.2598 22.6133 56.6289 23.4883 56.6289 24.623C56.6289 25.5801 56.3145 26.3867 55.6855 27.0293C54.9883 27.7539 54.2227 28.3691 53.3887 28.875C52.0488 29.6953 51.2559 30.4062 50.9961 30.9941C50.7637 31.5547 50.6406 32.1289 50.627 32.7305H56.4238V34.3711H48.6992Z" fill="white"/>
<path d="M41.5352 34.3574V23.4199L38.3906 26.127V23.748L41.5078 21.2051H43.4219V34.3574H41.5352Z" fill="white"/>
<path d="M30.502 31.5684H32.1699C32.1699 32.3887 31.8965 33.0586 31.3496 33.5918C30.8027 34.1113 30.0781 34.3984 29.1758 34.4531H28.9707C28.2734 34.4531 27.6445 34.248 27.084 33.8379C26.4414 33.3594 25.9766 32.6895 25.6621 31.8281C25.293 30.7891 25.1152 29.5996 25.1152 28.2461C25.1152 26.8926 25.293 25.7031 25.6484 24.6777C25.9355 23.8711 26.4004 23.2285 27.043 22.75C27.6719 22.2852 28.3828 22.0527 29.1758 22.0527C30.0508 22.0527 30.6797 22.2441 31.0625 22.627C31.7871 23.3516 32.1426 24.0762 32.1426 24.8145H30.584L30.5566 24.5273C30.5156 24.3633 30.3926 24.1719 30.2012 23.9531C30.0234 23.7344 29.6406 23.625 29.0801 23.625C28.4102 23.625 27.8633 23.9531 27.4531 24.6094C27.043 25.3066 26.8379 26.4141 26.8379 27.959V28.2461C26.8789 29.9551 27.125 31.1582 27.5762 31.8691C28 32.5391 28.4922 32.8809 29.0801 32.8809C29.5723 32.8809 29.9551 32.7305 30.2285 32.4297C30.3516 32.293 30.4336 32.0879 30.4746 31.8145L30.502 31.5684Z" fill="white"/>
<path d="M13.9316 27.2754H16.6113C17.2402 27.2754 17.8008 27.1387 18.2793 26.8516C18.7031 26.5918 18.9082 26.1816 18.9082 25.6211V25.5527C18.9082 25.0742 18.6484 24.6914 18.1426 24.377C17.7051 24.1035 17.1992 23.9668 16.6113 23.9668H13.9316V27.2754ZM13.9316 32.7715H16.6113C17.2812 32.7715 17.8418 32.6348 18.2793 32.3613C18.8125 32.0469 19.0723 31.582 19.0723 30.9668C19.0723 30.3516 18.8398 29.8457 18.3887 29.4629C17.9512 29.0664 17.3633 28.8613 16.6113 28.8613H13.9316V32.7715ZM12.2363 34.3574V22.3809H16.6113C17.9512 22.3809 18.9766 22.6953 19.7012 23.3379C20.3164 23.8848 20.6309 24.582 20.6309 25.4434C20.6309 26.2773 20.4668 26.8926 20.1387 27.2754C19.9473 27.5078 19.7148 27.7266 19.4551 27.918L19.127 28.123L19.4277 28.2598C19.7695 28.4648 20.0566 28.7109 20.2754 28.998C20.6445 29.4219 20.8223 30.0371 20.8223 30.8574C20.8086 31.9375 20.4805 32.7305 19.8516 33.25C18.9629 33.9883 17.8828 34.3574 16.6113 34.3574H12.2363Z" fill="white"/>
<path d="M2.9668 29.2578H5.94727L4.4707 23.8027L2.9668 29.2578ZM0 34.3574L3.4043 22.0391H5.70117L8.83203 34.3574H7.10938L6.20703 30.9121H2.55664L1.57227 34.3574H0Z" fill="white"/>
<path d="M317.447 7.16406L323.6 11.1836V13.2344L314.959 7.46484V6.84961L323.6 1.18945V3.26758L317.447 7.16406Z" fill="white"/>
<path d="M305.334 7.16406L311.486 11.1836V13.2344L302.846 7.46484V6.84961L311.486 1.18945V3.26758L305.334 7.16406Z" fill="white"/>
<path d="M293.221 7.16406L299.373 11.1836V13.2344L290.732 7.46484V6.84961L299.373 1.18945V3.26758L293.221 7.16406Z" fill="white"/>
<path d="M281.107 7.16406L287.26 11.1836V13.2344L278.619 7.46484V6.84961L287.26 1.18945V3.26758L281.107 7.16406Z" fill="white"/>
<path d="M268.994 7.16406L275.146 11.1836V13.2344L266.506 7.46484V6.84961L275.146 1.18945V3.26758L268.994 7.16406Z" fill="white"/>
<path d="M256.881 7.16406L263.033 11.1836V13.2344L254.393 7.46484V6.84961L263.033 1.18945V3.26758L256.881 7.16406Z" fill="white"/>
<path d="M244.768 7.16406L250.92 11.1836V13.2344L242.279 7.46484V6.84961L250.92 1.18945V3.26758L244.768 7.16406Z" fill="white"/>
<path d="M232.654 7.16406L238.807 11.1836V13.2344L230.166 7.46484V6.84961L238.807 1.18945V3.26758L232.654 7.16406Z" fill="white"/>
<path d="M220.541 7.16406L226.693 11.1836V13.2344L218.053 7.46484V6.84961L226.693 1.18945V3.26758L220.541 7.16406Z" fill="white"/>
<path d="M208.428 7.16406L214.58 11.1836V13.2344L205.939 7.46484V6.84961L214.58 1.18945V3.26758L208.428 7.16406Z" fill="white"/>
<path d="M196.314 7.16406L202.467 11.1836V13.2344L193.826 7.46484V6.84961L202.467 1.18945V3.26758L196.314 7.16406Z" fill="white"/>
<path d="M184.201 7.16406L190.354 11.1836V13.2344L181.713 7.46484V6.84961L190.354 1.18945V3.26758L184.201 7.16406Z" fill="white"/>
<path d="M172.088 7.16406L178.24 11.1836V13.2344L169.6 7.46484V6.84961L178.24 1.18945V3.26758L172.088 7.16406Z" fill="white"/>
<path d="M159.975 7.16406L166.127 11.1836V13.2344L157.486 7.46484V6.84961L166.127 1.18945V3.26758L159.975 7.16406Z" fill="white"/>
<path d="M147.861 7.16406L154.014 11.1836V13.2344L145.373 7.46484V6.84961L154.014 1.18945V3.26758L147.861 7.16406Z" fill="white"/>
<path d="M135.748 7.16406L141.9 11.1836V13.2344L133.26 7.46484V6.84961L141.9 1.18945V3.26758L135.748 7.16406Z" fill="white"/>
<path d="M123.635 7.16406L129.787 11.1836V13.2344L121.146 7.46484V6.84961L129.787 1.18945V3.26758L123.635 7.16406Z" fill="white"/>
<path d="M111.521 7.16406L117.674 11.1836V13.2344L109.033 7.46484V6.84961L117.674 1.18945V3.26758L111.521 7.16406Z" fill="white"/>
<path d="M99.4082 7.16406L105.561 11.1836V13.2344L96.9199 7.46484V6.84961L105.561 1.18945V3.26758L99.4082 7.16406Z" fill="white"/>
<path d="M87.2949 7.16406L93.4473 11.1836V13.2344L84.8066 7.46484V6.84961L93.4473 1.18945V3.26758L87.2949 7.16406Z" fill="white"/>
<path d="M75.1816 7.16406L81.334 11.1836V13.2344L72.6934 7.46484V6.84961L81.334 1.18945V3.26758L75.1816 7.16406Z" fill="white"/>
<path d="M65.2148 5.20898L65.9395 5.3457C66.6094 5.49609 67.1426 5.7832 67.5527 6.20703C68.4141 7.04102 68.8516 8.03906 68.8516 9.1875V9.22852C68.8516 10.3906 68.5098 11.3066 67.8398 11.9766C66.9785 12.8379 65.8984 13.3301 64.5859 13.4531C64.3809 13.4668 64.1895 13.4805 63.9844 13.4805C62.877 13.4805 61.7559 13.207 60.6484 12.6465V10.8418L61.7559 11.416C62.3711 11.6758 63.0273 11.7988 63.7383 11.7988C63.9297 11.7988 64.1348 11.7852 64.3398 11.7715C65.2422 11.6758 65.9531 11.3613 66.4863 10.8418C66.9785 10.377 67.2246 9.87109 67.2246 9.32422V9.24219C67.2246 8.53125 67.0059 7.95703 66.5684 7.50586C66.0898 6.98633 65.4336 6.72656 64.5859 6.72656H62.7949V5.37305L66.3496 1.77734H60.6484V0.136719H68.4004V1.98242L65.2148 5.20898Z" fill="white"/>
<path d="M48.6992 13.3711C48.6992 11.3887 48.8496 10.1445 49.1504 9.61133C49.6152 8.61328 50.6133 7.62891 52.1445 6.64453C53.3613 5.86523 54.1816 5.1543 54.6191 4.51172C54.7832 4.2793 54.8652 3.99219 54.8652 3.65039C54.8652 3.43164 54.8379 3.19922 54.7695 2.93945C54.6738 2.57031 54.373 2.24219 53.8809 1.95508C53.5527 1.75 53.1699 1.64062 52.7188 1.64062C51.666 1.64062 50.6953 1.90039 49.8066 2.41992C49.2051 2.77539 48.9043 2.95312 48.9043 2.9668C48.8906 2.54297 48.8906 2.16016 48.8906 1.83203C48.8906 1.49023 48.8906 1.2168 48.9043 0.984375C50.2031 0.341797 51.4746 0.0136719 52.7188 0C53.8398 0 54.7695 0.328125 55.5078 0.970703C56.2598 1.61328 56.6289 2.48828 56.6289 3.62305C56.6289 4.58008 56.3145 5.38672 55.6855 6.0293C54.9883 6.75391 54.2227 7.36914 53.3887 7.875C52.0488 8.69531 51.2559 9.40625 50.9961 9.99414C50.7637 10.5547 50.6406 11.1289 50.627 11.7305H56.4238V13.3711H48.6992Z" fill="white"/>
<path d="M41.5352 13.3574V2.41992L38.3906 5.12695V2.74805L41.5078 0.205078H43.4219V13.3574H41.5352Z" fill="white"/>
<path d="M30.502 10.5684H32.1699C32.1699 11.3887 31.8965 12.0586 31.3496 12.5918C30.8027 13.1113 30.0781 13.3984 29.1758 13.4531H28.9707C28.2734 13.4531 27.6445 13.248 27.084 12.8379C26.4414 12.3594 25.9766 11.6895 25.6621 10.8281C25.293 9.78906 25.1152 8.59961 25.1152 7.24609C25.1152 5.89258 25.293 4.70312 25.6484 3.67773C25.9355 2.87109 26.4004 2.22852 27.043 1.75C27.6719 1.28516 28.3828 1.05273 29.1758 1.05273C30.0508 1.05273 30.6797 1.24414 31.0625 1.62695C31.7871 2.35156 32.1426 3.07617 32.1426 3.81445H30.584L30.5566 3.52734C30.5156 3.36328 30.3926 3.17188 30.2012 2.95312C30.0234 2.73438 29.6406 2.625 29.0801 2.625C28.4102 2.625 27.8633 2.95312 27.4531 3.60938C27.043 4.30664 26.8379 5.41406 26.8379 6.95898V7.24609C26.8789 8.95508 27.125 10.1582 27.5762 10.8691C28 11.5391 28.4922 11.8809 29.0801 11.8809C29.5723 11.8809 29.9551 11.7305 30.2285 11.4297C30.3516 11.293 30.4336 11.0879 30.4746 10.8145L30.502 10.5684Z" fill="white"/>
<path d="M13.9316 6.27539H16.6113C17.2402 6.27539 17.8008 6.13867 18.2793 5.85156C18.7031 5.5918 18.9082 5.18164 18.9082 4.62109V4.55273C18.9082 4.07422 18.6484 3.69141 18.1426 3.37695C17.7051 3.10352 17.1992 2.9668 16.6113 2.9668H13.9316V6.27539ZM13.9316 11.7715H16.6113C17.2812 11.7715 17.8418 11.6348 18.2793 11.3613C18.8125 11.0469 19.0723 10.582 19.0723 9.9668C19.0723 9.35156 18.8398 8.8457 18.3887 8.46289C17.9512 8.06641 17.3633 7.86133 16.6113 7.86133H13.9316V11.7715ZM12.2363 13.3574V1.38086H16.6113C17.9512 1.38086 18.9766 1.69531 19.7012 2.33789C20.3164 2.88477 20.6309 3.58203 20.6309 4.44336C20.6309 5.27734 20.4668 5.89258 20.1387 6.27539C19.9473 6.50781 19.7148 6.72656 19.4551 6.91797L19.127 7.12305L19.4277 7.25977C19.7695 7.46484 20.0566 7.71094 20.2754 7.99805C20.6445 8.42188 20.8223 9.03711 20.8223 9.85742C20.8086 10.9375 20.4805 11.7305 19.8516 12.25C18.9629 12.9883 17.8828 13.3574 16.6113 13.3574H12.2363Z" fill="white"/>
<path d="M2.9668 8.25781H5.94727L4.4707 2.80273L2.9668 8.25781ZM0 13.3574L3.4043 1.03906H5.70117L8.83203 13.3574H7.10938L6.20703 9.91211H2.55664L1.57227 13.3574H0Z" fill="white"/>
</svg>
