<svg width="24" height="24" viewBox="0 0 24 24" fill="none" xmlns="http://www.w3.org/2000/svg">
<g opacity="0.98">
<path fill-rule="evenodd" clip-rule="evenodd" d="M4.52987 3.47025C4.76321 3.23691 5.11092 3.19215 5.3912 3.3306C5.42654 3.40214 5.47033 3.47125 5.52987 3.5308L21.4703 19.4703C21.5294 19.5292 21.5976 19.5728 21.6685 19.6079C21.8078 19.8885 21.7635 20.2366 21.5299 20.4703C21.237 20.7626 20.7621 20.7627 20.4693 20.4703L12.7496 12.7505V17.2505C12.7503 18.2809 12.3972 19.2801 11.7496 20.0816C11.1021 20.8829 10.1994 21.4381 9.19198 21.6538C8.1844 21.8694 7.13236 21.7333 6.21347 21.2671C5.29459 20.8009 4.56321 20.0328 4.14218 19.0923C3.72122 18.1519 3.6357 17.095 3.89999 16.0992C4.16433 15.1032 4.76337 14.2286 5.5953 13.6206C6.42729 13.0128 7.44312 12.7085 8.47226 12.7593C9.50127 12.8103 10.4816 13.2131 11.2496 13.8999V11.2505L4.52987 4.5308C4.23726 4.23807 4.23753 3.76315 4.52987 3.47025ZM11.8697 3.01127C11.9848 2.99106 12.1035 2.99824 12.2154 3.03178L19.7154 5.28178C19.8697 5.32808 20.0049 5.42317 20.1012 5.55228C20.1974 5.68164 20.2496 5.83929 20.2496 6.00053V10.5005C20.2495 10.6172 20.2219 10.7322 20.1695 10.8365C20.117 10.9408 20.0406 11.0324 19.9469 11.1021C19.8532 11.1716 19.7444 11.2186 19.6295 11.2388C19.5145 11.259 19.3956 11.2519 19.2838 11.2183L13.65 9.52787L11.2496 7.12748V3.75053C11.2496 3.63371 11.2772 3.518 11.3297 3.41361C11.3821 3.30928 11.4587 3.2187 11.5523 3.14896C11.646 3.07929 11.7547 3.03155 11.8697 3.01127Z" fill="white"/>
</g>
</svg>
