<svg width="24" height="24" viewBox="0 0 24 24" fill="none" xmlns="http://www.w3.org/2000/svg">
<path d="M17.25 6.5H6.75C6.35218 6.5 5.97064 6.65804 5.68934 6.93934C5.40804 7.22064 5.25 7.60218 5.25 8V10.2497C5.2508 10.5741 5.35599 10.8897 5.55 11.1497L7.5 13.7503V21C7.5 21.3978 7.65804 21.7794 7.93934 22.0607C8.22064 22.342 8.60218 22.5 9 22.5H15C15.3978 22.5 15.7794 22.342 16.0607 22.0607C16.342 21.7794 16.5 21.3978 16.5 21V13.7503L18.45 11.1497C18.644 10.8897 18.7492 10.5741 18.75 10.2497V8C18.75 7.60218 18.592 7.22064 18.3107 6.93934C18.0294 6.65804 17.6478 6.5 17.25 6.5ZM12.75 17.25C12.75 17.4489 12.671 17.6397 12.5303 17.7803C12.3897 17.921 12.1989 18 12 18C11.8011 18 11.6103 17.921 11.4697 17.7803C11.329 17.6397 11.25 17.4489 11.25 17.25V14.25C11.25 14.0511 11.329 13.8603 11.4697 13.7197C11.6103 13.579 11.8011 13.5 12 13.5C12.1989 13.5 12.3897 13.579 12.5303 13.7197C12.671 13.8603 12.75 14.0511 12.75 14.25V17.25Z" fill="white"/>
<path d="M11.125 3.7V1.3C11.125 1.08783 11.2172 0.884344 11.3813 0.734315C11.5454 0.584285 11.7679 0.5 12 0.5C12.2321 0.5 12.4546 0.584285 12.6187 0.734315C12.7828 0.884344 12.875 1.08783 12.875 1.3V3.7C12.875 3.91217 12.7828 4.11566 12.6187 4.26569C12.4546 4.41571 12.2321 4.5 12 4.5C11.7679 4.5 11.5454 4.41571 11.3813 4.26569C11.2172 4.11566 11.125 3.91217 11.125 3.7Z" fill="white"/>
<path d="M6.09231 4.97685L4.89231 2.89839C4.78622 2.71464 4.76432 2.49232 4.83141 2.28035C4.89851 2.06837 5.04911 1.8841 5.25008 1.76807C5.45106 1.65203 5.68594 1.61375 5.90307 1.66163C6.12019 1.70951 6.30177 1.83964 6.40785 2.02339L7.60785 4.10185C7.71394 4.2856 7.73585 4.50791 7.66875 4.71989C7.60166 4.93186 7.45106 5.11614 7.25008 5.23217C7.04911 5.3482 6.81422 5.38649 6.5971 5.3386C6.37997 5.29072 6.1984 5.1606 6.09231 4.97685Z" fill="white"/>
<path d="M16.3922 4.10185L17.5922 2.02339C17.6983 1.83964 17.8799 1.70951 18.097 1.66163C18.3141 1.61375 18.549 1.65203 18.75 1.76807C18.9509 1.8841 19.1015 2.06837 19.1686 2.28035C19.2357 2.49232 19.2138 2.71464 19.1077 2.89839L17.9077 4.97685C17.8016 5.1606 17.6201 5.29072 17.4029 5.33861C17.1858 5.38649 16.9509 5.3482 16.75 5.23217C16.549 5.11614 16.3984 4.93186 16.3313 4.71989C16.2642 4.50791 16.2861 4.2856 16.3922 4.10185Z" fill="white"/>
</svg>
